# xmcd
#
# Track frame offsets: 
#        150
#        12112
#        25400
#        38250
#        52825
#        64575
#
# Disc length: 1062 seconds
#
# Revision: 0
# Processed by: cddbd v1.5.2PL0 Copyright (c) Steve Scherf et al.
# Submitted via: ExactAudioCopyFreeDBPlugin 1.0
#
DISCID=38042406
DTITLE=荒木一郎 - 空に星があるように
DYEAR=2002
DGENRE=JPop
TTITLE0=空に星があるように
TTITLE1=今夜は踊ろう
TTITLE2=いとしのマックス（マックス・ア・ゴーゴー）
TTITLE3=あなたといるだけで
TTITLE4=淋しげな真珠
TTITLE5=あなたのいない夜
EXTD=
EXTT0=
EXTT1=
EXTT2=
EXTT3=
EXTT4=
EXTT5=
PLAYORDER=
